{
    "asset" : {
        "generator" : "Khronos glTF Blender I/O v1.3.48",
        "version" : "2.0"
    },
    "scene" : 0,
    "scenes" : [
        {
            "name" : "Scene",
            "nodes" : [
                0,
                1,
                2,
                3,
                4,
                5,
                6,
                7,
                8,
                9,
                10,
                11
            ]
        }
    ],
    "nodes" : [
        {
            "mesh" : 0,
            "name" : "HCDLQSCSSLGYDYSDZDCXM2020072500321"
        },
        {
            "mesh" : 1,
            "name" : "HCDLQSCSSLGYDYSDZDCXM2020072500322"
        },
        {
            "mesh" : 2,
            "name" : "HCDLQSCSSLGYDYSDZDCXM2020072500323"
        },
        {
            "mesh" : 3,
            "name" : "HCDLQSCSSLGYDYSDZDCXM2020072500324"
        },
        {
            "mesh" : 4,
            "name" : "HCDLQSCSSLGYDYSDZDCXM2020072500325"
        },
        {
            "mesh" : 5,
            "name" : "HCDLQSCSSLGYDYSDZDCXM2020072500326"
        },
        {
            "mesh" : 6,
            "name" : "HCDLQSCSSLGYDYSDZDCXM2020072500327"
        },
        {
            "mesh" : 7,
            "name" : "HCDLQSCSSLGYDYSDZDCXM2020072500328"
        },
        {
            "mesh" : 8,
            "name" : "HCDLQSCSSLGYDYSDZDCXM2020072500329"
        },
        {
            "mesh" : 9,
            "name" : "HCDLQSCSSLGYDYSDZDCXM2020072500330"
        },
        {
            "mesh" : 10,
            "name" : "HCDLQSCSSLGYDYSDZDCXM2020072500331"
        },
        {
            "mesh" : 11,
            "name" : "HCDLQSCSSLGYDYSDZDCXM2020072500332"
        }
    ],
    "materials" : [
        {
            "doubleSided" : true,
            "emissiveFactor" : [
                0,
                0,
                0
            ],
            "name" : "\u8910\u9ec4\u8272",
            "pbrMetallicRoughness" : {
                "baseColorFactor" : [
                    0.5088815689086914,
                    0.47353148460388184,
                    0.14702734351158142,
                    1
                ],
                "metallicFactor" : 0,
                "roughnessFactor" : 0.4000000059604645
            }
        },
        {
            "doubleSided" : true,
            "emissiveFactor" : [
                0,
                0,
                0
            ],
            "name" : "\u7816\u7ea2\u8272",
            "pbrMetallicRoughness" : {
                "baseColorFactor" : [
                    0.33245164155960083,
                    0.13286834955215454,
                    0.013702098280191422,
                    1
                ],
                "metallicFactor" : 0,
                "roughnessFactor" : 0.5
            }
        },
        {
            "doubleSided" : true,
            "emissiveFactor" : [
                0,
                0,
                0
            ],
            "name" : "\u7d2b\u7ea2\u8272",
            "pbrMetallicRoughness" : {
                "baseColorFactor" : [
                    0.6038274168968201,
                    0.03189598768949509,
                    0.318546861410141,
                    1
                ],
                "metallicFactor" : 0,
                "roughnessFactor" : 0.5
            }
        }
    ],
    "meshes" : [
        {
            "name" : "\u5706\u73af",
            "primitives" : [
                {
                    "attributes" : {
                        "POSITION" : 0,
                        "NORMAL" : 1,
                        "TEXCOORD_0" : 2
                    },
                    "indices" : 3,
                    "material" : 0
                }
            ]
        },
        {
            "name" : "\u5706\u73af.002",
            "primitives" : [
                {
                    "attributes" : {
                        "POSITION" : 4,
                        "NORMAL" : 5,
                        "TEXCOORD_0" : 6
                    },
                    "indices" : 7,
                    "material" : 1
                }
            ]
        },
        {
            "name" : "\u5706\u73af.003",
            "primitives" : [
                {
                    "attributes" : {
                        "POSITION" : 8,
                        "NORMAL" : 9,
                        "TEXCOORD_0" : 10
                    },
                    "indices" : 7,
                    "material" : 2
                }
            ]
        },
        {
            "name" : "\u5706\u73af.004",
            "primitives" : [
                {
                    "attributes" : {
                        "POSITION" : 11,
                        "NORMAL" : 12,
                        "TEXCOORD_0" : 13
                    },
                    "indices" : 7,
                    "material" : 1
                }
            ]
        },
        {
            "name" : "\u5706\u73af.005",
            "primitives" : [
                {
                    "attributes" : {
                        "POSITION" : 14,
                        "NORMAL" : 15,
                        "TEXCOORD_0" : 16
                    },
                    "indices" : 7,
                    "material" : 2
                }
            ]
        },
        {
            "name" : "\u5706\u73af.006",
            "primitives" : [
                {
                    "attributes" : {
                        "POSITION" : 17,
                        "NORMAL" : 18,
                        "TEXCOORD_0" : 19
                    },
                    "indices" : 7,
                    "material" : 1
                }
            ]
        },
        {
            "name" : "\u5706\u73af.007",
            "primitives" : [
                {
                    "attributes" : {
                        "POSITION" : 20,
                        "NORMAL" : 21,
                        "TEXCOORD_0" : 22
                    },
                    "indices" : 23,
                    "material" : 2
                }
            ]
        },
        {
            "name" : "\u5706\u73af.008",
            "primitives" : [
                {
                    "attributes" : {
                        "POSITION" : 24,
                        "NORMAL" : 25,
                        "TEXCOORD_0" : 26
                    },
                    "indices" : 23,
                    "material" : 1
                }
            ]
        },
        {
            "name" : "\u5706\u73af.009",
            "primitives" : [
                {
                    "attributes" : {
                        "POSITION" : 27,
                        "NORMAL" : 28,
                        "TEXCOORD_0" : 29
                    },
                    "indices" : 23,
                    "material" : 2
                }
            ]
        },
        {
            "name" : "\u5706\u73af.010",
            "primitives" : [
                {
                    "attributes" : {
                        "POSITION" : 30,
                        "NORMAL" : 31,
                        "TEXCOORD_0" : 32
                    },
                    "indices" : 33,
                    "material" : 1
                }
            ]
        },
        {
            "name" : "\u5706\u73af.011",
            "primitives" : [
                {
                    "attributes" : {
                        "POSITION" : 34,
                        "NORMAL" : 35,
                        "TEXCOORD_0" : 36
                    },
                    "indices" : 37,
                    "material" : 2
                }
            ]
        },
        {
            "name" : "\u5706\u73af.012",
            "primitives" : [
                {
                    "attributes" : {
                        "POSITION" : 38,
                        "NORMAL" : 39,
                        "TEXCOORD_0" : 40
                    },
                    "indices" : 37,
                    "material" : 1
                }
            ]
        }
    ],
    "accessors" : [
        {
            "bufferView" : 0,
            "componentType" : 5126,
            "count" : 128,
            "max" : [
                0.06350000202655792,
                0,
                0.06350000202655792
            ],
            "min" : [
                -0.06350000202655792,
                -5.5,
                -0.06350000202655792
            ],
            "type" : "VEC3"
        },
        {
            "bufferView" : 1,
            "componentType" : 5126,
            "count" : 128,
            "type" : "VEC3"
        },
        {
            "bufferView" : 2,
            "componentType" : 5126,
            "count" : 128,
            "type" : "VEC2"
        },
        {
            "bufferView" : 3,
            "componentType" : 5123,
            "count" : 576,
            "type" : "SCALAR"
        },
        {
            "bufferView" : 4,
            "componentType" : 5126,
            "count" : 64,
            "max" : [
                0.04692016914486885,
                -5.5,
                0.04692016541957855
            ],
            "min" : [
                -0.04692016541957855,
                -9.600000381469727,
                -0.04692016541957855
            ],
            "type" : "VEC3"
        },
        {
            "bufferView" : 5,
            "componentType" : 5126,
            "count" : 64,
            "type" : "VEC3"
        },
        {
            "bufferView" : 6,
            "componentType" : 5126,
            "count" : 64,
            "type" : "VEC2"
        },
        {
            "bufferView" : 7,
            "componentType" : 5123,
            "count" : 282,
            "type" : "SCALAR"
        },
        {
            "bufferView" : 8,
            "componentType" : 5126,
            "count" : 64,
            "max" : [
                0.04692016914486885,
                -9.600000381469727,
                0.04692016541957855
            ],
            "min" : [
                -0.04692016541957855,
                -18.100000381469727,
                -0.04692016541957855
            ],
            "type" : "VEC3"
        },
        {
            "bufferView" : 9,
            "componentType" : 5126,
            "count" : 64,
            "type" : "VEC3"
        },
        {
            "bufferView" : 10,
            "componentType" : 5126,
            "count" : 64,
            "type" : "VEC2"
        },
        {
            "bufferView" : 11,
            "componentType" : 5126,
            "count" : 64,
            "max" : [
                0.04692016914486885,
                -18.100000381469727,
                0.04692016541957855
            ],
            "min" : [
                -0.04692016541957855,
                -30,
                -0.04692016541957855
            ],
            "type" : "VEC3"
        },
        {
            "bufferView" : 12,
            "componentType" : 5126,
            "count" : 64,
            "type" : "VEC3"
        },
        {
            "bufferView" : 13,
            "componentType" : 5126,
            "count" : 64,
            "type" : "VEC2"
        },
        {
            "bufferView" : 14,
            "componentType" : 5126,
            "count" : 64,
            "max" : [
                0.04692016914486885,
                -30,
                0.04692016541957855
            ],
            "min" : [
                -0.04692016541957855,
                -35,
                -0.04692016541957855
            ],
            "type" : "VEC3"
        },
        {
            "bufferView" : 15,
            "componentType" : 5126,
            "count" : 64,
            "type" : "VEC3"
        },
        {
            "bufferView" : 16,
            "componentType" : 5126,
            "count" : 64,
            "type" : "VEC2"
        },
        {
            "bufferView" : 17,
            "componentType" : 5126,
            "count" : 64,
            "max" : [
                0.04692016914486885,
                -35,
                0.04692016541957855
            ],
            "min" : [
                -0.04692016541957855,
                -37.20000076293945,
                -0.04692016541957855
            ],
            "type" : "VEC3"
        },
        {
            "bufferView" : 18,
            "componentType" : 5126,
            "count" : 64,
            "type" : "VEC3"
        },
        {
            "bufferView" : 19,
            "componentType" : 5126,
            "count" : 64,
            "type" : "VEC2"
        },
        {
            "bufferView" : 20,
            "componentType" : 5126,
            "count" : 64,
            "max" : [
                0.04692016914486885,
                -37.20000076293945,
                0.04692016541957855
            ],
            "min" : [
                -0.04692016541957855,
                -37.79999923706055,
                -0.04692016541957855
            ],
            "type" : "VEC3"
        },
        {
            "bufferView" : 21,
            "componentType" : 5126,
            "count" : 64,
            "type" : "VEC3"
        },
        {
            "bufferView" : 22,
            "componentType" : 5126,
            "count" : 64,
            "type" : "VEC2"
        },
        {
            "bufferView" : 23,
            "componentType" : 5123,
            "count" : 282,
            "type" : "SCALAR"
        },
        {
            "bufferView" : 24,
            "componentType" : 5126,
            "count" : 64,
            "max" : [
                0.04692016914486885,
                -37.79999923706055,
                0.04692016541957855
            ],
            "min" : [
                -0.04692016541957855,
                -47.19999694824219,
                -0.04692016541957855
            ],
            "type" : "VEC3"
        },
        {
            "bufferView" : 25,
            "componentType" : 5126,
            "count" : 64,
            "type" : "VEC3"
        },
        {
            "bufferView" : 26,
            "componentType" : 5126,
            "count" : 64,
            "type" : "VEC2"
        },
        {
            "bufferView" : 27,
            "componentType" : 5126,
            "count" : 64,
            "max" : [
                0.04692016914486885,
                -47.19999694824219,
                0.04692016541957855
            ],
            "min" : [
                -0.04692016541957855,
                -47.73999786376953,
                -0.04692016541957855
            ],
            "type" : "VEC3"
        },
        {
            "bufferView" : 28,
            "componentType" : 5126,
            "count" : 64,
            "type" : "VEC3"
        },
        {
            "bufferView" : 29,
            "componentType" : 5126,
            "count" : 64,
            "type" : "VEC2"
        },
        {
            "bufferView" : 30,
            "componentType" : 5126,
            "count" : 64,
            "max" : [
                0.04692016914486885,
                -47.73999786376953,
                0.04692016541957855
            ],
            "min" : [
                -0.04692016541957855,
                -55.72999572753906,
                -0.04692016541957855
            ],
            "type" : "VEC3"
        },
        {
            "bufferView" : 31,
            "componentType" : 5126,
            "count" : 64,
            "type" : "VEC3"
        },
        {
            "bufferView" : 32,
            "componentType" : 5126,
            "count" : 64,
            "type" : "VEC2"
        },
        {
            "bufferView" : 33,
            "componentType" : 5123,
            "count" : 282,
            "type" : "SCALAR"
        },
        {
            "bufferView" : 34,
            "componentType" : 5126,
            "count" : 64,
            "max" : [
                0.04692016914486885,
                -55.72999572753906,
                0.04692016541957855
            ],
            "min" : [
                -0.04692016541957855,
                -58.09999465942383,
                -0.04692016541957855
            ],
            "type" : "VEC3"
        },
        {
            "bufferView" : 35,
            "componentType" : 5126,
            "count" : 64,
            "type" : "VEC3"
        },
        {
            "bufferView" : 36,
            "componentType" : 5126,
            "count" : 64,
            "type" : "VEC2"
        },
        {
            "bufferView" : 37,
            "componentType" : 5123,
            "count" : 282,
            "type" : "SCALAR"
        },
        {
            "bufferView" : 38,
            "componentType" : 5126,
            "count" : 64,
            "max" : [
                0.04692016914486885,
                -58.09999465942383,
                0.04692016541957855
            ],
            "min" : [
                -0.04692016541957855,
                -61.59999465942383,
                -0.04692016541957855
            ],
            "type" : "VEC3"
        },
        {
            "bufferView" : 39,
            "componentType" : 5126,
            "count" : 64,
            "type" : "VEC3"
        },
        {
            "bufferView" : 40,
            "componentType" : 5126,
            "count" : 64,
            "type" : "VEC2"
        }
    ],
    "bufferViews" : [
        {
            "buffer" : 0,
            "byteLength" : 1536,
            "byteOffset" : 0
        },
        {
            "buffer" : 0,
            "byteLength" : 1536,
            "byteOffset" : 1536
        },
        {
            "buffer" : 0,
            "byteLength" : 1024,
            "byteOffset" : 3072
        },
        {
            "buffer" : 0,
            "byteLength" : 1152,
            "byteOffset" : 4096
        },
        {
            "buffer" : 0,
            "byteLength" : 768,
            "byteOffset" : 5248
        },
        {
            "buffer" : 0,
            "byteLength" : 768,
            "byteOffset" : 6016
        },
        {
            "buffer" : 0,
            "byteLength" : 512,
            "byteOffset" : 6784
        },
        {
            "buffer" : 0,
            "byteLength" : 564,
            "byteOffset" : 7296
        },
        {
            "buffer" : 0,
            "byteLength" : 768,
            "byteOffset" : 7860
        },
        {
            "buffer" : 0,
            "byteLength" : 768,
            "byteOffset" : 8628
        },
        {
            "buffer" : 0,
            "byteLength" : 512,
            "byteOffset" : 9396
        },
        {
            "buffer" : 0,
            "byteLength" : 768,
            "byteOffset" : 9908
        },
        {
            "buffer" : 0,
            "byteLength" : 768,
            "byteOffset" : 10676
        },
        {
            "buffer" : 0,
            "byteLength" : 512,
            "byteOffset" : 11444
        },
        {
            "buffer" : 0,
            "byteLength" : 768,
            "byteOffset" : 11956
        },
        {
            "buffer" : 0,
            "byteLength" : 768,
            "byteOffset" : 12724
        },
        {
            "buffer" : 0,
            "byteLength" : 512,
            "byteOffset" : 13492
        },
        {
            "buffer" : 0,
            "byteLength" : 768,
            "byteOffset" : 14004
        },
        {
            "buffer" : 0,
            "byteLength" : 768,
            "byteOffset" : 14772
        },
        {
            "buffer" : 0,
            "byteLength" : 512,
            "byteOffset" : 15540
        },
        {
            "buffer" : 0,
            "byteLength" : 768,
            "byteOffset" : 16052
        },
        {
            "buffer" : 0,
            "byteLength" : 768,
            "byteOffset" : 16820
        },
        {
            "buffer" : 0,
            "byteLength" : 512,
            "byteOffset" : 17588
        },
        {
            "buffer" : 0,
            "byteLength" : 564,
            "byteOffset" : 18100
        },
        {
            "buffer" : 0,
            "byteLength" : 768,
            "byteOffset" : 18664
        },
        {
            "buffer" : 0,
            "byteLength" : 768,
            "byteOffset" : 19432
        },
        {
            "buffer" : 0,
            "byteLength" : 512,
            "byteOffset" : 20200
        },
        {
            "buffer" : 0,
            "byteLength" : 768,
            "byteOffset" : 20712
        },
        {
            "buffer" : 0,
            "byteLength" : 768,
            "byteOffset" : 21480
        },
        {
            "buffer" : 0,
            "byteLength" : 512,
            "byteOffset" : 22248
        },
        {
            "buffer" : 0,
            "byteLength" : 768,
            "byteOffset" : 22760
        },
        {
            "buffer" : 0,
            "byteLength" : 768,
            "byteOffset" : 23528
        },
        {
            "buffer" : 0,
            "byteLength" : 512,
            "byteOffset" : 24296
        },
        {
            "buffer" : 0,
            "byteLength" : 564,
            "byteOffset" : 24808
        },
        {
            "buffer" : 0,
            "byteLength" : 768,
            "byteOffset" : 25372
        },
        {
            "buffer" : 0,
            "byteLength" : 768,
            "byteOffset" : 26140
        },
        {
            "buffer" : 0,
            "byteLength" : 512,
            "byteOffset" : 26908
        },
        {
            "buffer" : 0,
            "byteLength" : 564,
            "byteOffset" : 27420
        },
        {
            "buffer" : 0,
            "byteLength" : 768,
            "byteOffset" : 27984
        },
        {
            "buffer" : 0,
            "byteLength" : 768,
            "byteOffset" : 28752
        },
        {
            "buffer" : 0,
            "byteLength" : 512,
            "byteOffset" : 29520
        }
    ],
    "buffers" : [
        {
            "byteLength" : 30032,
            "uri" : "data:application/octet-stream;base64,"
        }
    ]
}
