{
  "asset": {
    "version": "2.0",
    "generator": "babylon.js glTF exporter for 3dsmax 2019 v20200813.4"
  },
  "scene": 0,
  "scenes": [
    {
      "nodes": [
        0,
        1,
        2
      ]
    }
  ],
  "nodes": [
    {
      "skin": 0,
      "mesh": 0,
      "name": "Box001"
    },
    {
      "name": "Default light"
    },
    {
      "children": [
        3,
        7
      ],
      "translation": [
        -2.2313168,
        5.526145,
        2.41555483e-7
      ],
      "rotation": [
        0.49999848,
        0.499998242,
        0.500001848,
        0.5000017
      ],
      "scale": [
        1.00000024,
        1.00000012,
        1
      ],
      "name": "Bone001"
    },
    {
      "children": [
        4
      ],
      "translation": [
        339.3186,
        -0.00115966774,
        156.985931
      ],
      "rotation": [
        0.00000212196164,
        -0.8340087,
        -0.00000311904046,
        0.5517514
      ],
      "name": "Bone003",
      "scale": [
        1,
        1,
        1
      ]
    },
    {
      "children": [
        5
      ],
      "translation": [
        225.38681,
        0.00000286354771,
        -0.0000305175781
      ],
      "rotation": [
        -1.425115e-14,
        -0.07514538,
        -5.34418159e-15,
        0.9971726
      ],
      "scale": [
        1,
        0.9999999,
        0.99999994
      ],
      "name": "Bone004"
    },
    {
      "children": [
        6
      ],
      "translation": [
        130.96608,
        0.000008968196,
        0
      ],
      "rotation": [
        0,
        -0.0499931574,
        1.422865e-14,
        0.9987495
      ],
      "scale": [
        0.99999994,
        1,
        0.99999994
      ],
      "name": "Bone005"
    },
    {
      "translation": [
        234.924011,
        0.0000123210084,
        -0.0000610351563
      ],
      "rotation": [
        0,
        -7.450581e-9,
        -1.42108581e-14,
        1
      ],
      "scale": [
        1,
        0.9999999,
        1
      ],
      "name": "Bone006"
    },
    {
      "children": [
        8
      ],
      "translation": [
        339.3186,
        0.00112915062,
        -152.523666
      ],
      "rotation": [
        -0.00007241284,
        0.834008634,
        0.000177593683,
        0.5517515
      ],
      "scale": [
        1.00000012,
        0.99999994,
        0.9999998
      ],
      "name": "Bone003(mirrored)"
    },
    {
      "children": [
        9
      ],
      "translation": [
        225.38681,
        0.0000915527344,
        -0.0000610351563
      ],
      "rotation": [
        0.00009695535,
        0.0751451,
        -0.0000132399064,
        0.9971726
      ],
      "scale": [
        0.99999994,
        1,
        1.00000012
      ],
      "name": "Bone004(mirrored)"
    },
    {
      "children": [
        10
      ],
      "translation": [
        130.96608,
        0.0000305175781,
        0.0000305175781
      ],
      "rotation": [
        0.0000403424528,
        0.04999274,
        0.00000721149127,
        0.9987496
      ],
      "scale": [
        1.00000024,
        1.00000012,
        1.00000012
      ],
      "name": "Bone005(mirrored)"
    },
    {
      "translation": [
        234.924011,
        0.0000572185963,
        -0.0000915527344
      ],
      "rotation": [
        4.371214e-8,
        2.160669e-7,
        -7.549625e-8,
        1
      ],
      "scale": [
        0.9999998,
        1,
        0.999999762
      ],
      "name": "Bone006(mirrored)"
    }
  ],
  "meshes": [
    {
      "primitives": [
        {
          "attributes": {
            "POSITION": 1,
            "NORMAL": 2,
            "TEXCOORD_0": 3,
            "JOINTS_0": 4,
            "WEIGHTS_0": 5
          },
          "indices": 0,
          "material": 0,
          "mode": 4
        },
        {
          "attributes": {
            "POSITION": 7,
            "NORMAL": 8,
            "TEXCOORD_0": 9,
            "JOINTS_0": 10,
            "WEIGHTS_0": 11
          },
          "indices": 6,
          "material": 1,
          "mode": 4
        }
      ],
      "name": "Box001"
    }
  ],
  "accessors": [
    {
      "bufferView": 0,
      "componentType": 5123,
      "count": 3672,
      "type": "SCALAR",
      "name": "accessorIndices",
      "byteOffset": 0
    },
    {
      "bufferView": 1,
      "componentType": 5126,
      "count": 3672,
      "max": [
        622.2112,
        500.000122,
        273.9408
      ],
      "min": [
        -622.2442,
        -21.2259235,
        -273.940643
      ],
      "type": "VEC3",
      "name": "accessorPositions",
      "byteOffset": 0
    },
    {
      "bufferView": 1,
      "byteOffset": 44064,
      "componentType": 5126,
      "count": 3672,
      "type": "VEC3",
      "name": "accessorNormals"
    },
    {
      "bufferView": 2,
      "componentType": 5126,
      "count": 3672,
      "type": "VEC2",
      "name": "accessorUVs",
      "byteOffset": 0
    },
    {
      "bufferView": 3,
      "componentType": 5123,
      "count": 3672,
      "type": "VEC4",
      "name": "accessorJoints",
      "byteOffset": 0
    },
    {
      "bufferView": 4,
      "componentType": 5126,
      "count": 3672,
      "type": "VEC4",
      "name": "accessorWeights",
      "byteOffset": 0
    },
    {
      "bufferView": 0,
      "byteOffset": 7344,
      "componentType": 5123,
      "count": 288,
      "type": "SCALAR",
      "name": "accessorIndices"
    },
    {
      "bufferView": 1,
      "byteOffset": 88128,
      "componentType": 5126,
      "count": 288,
      "max": [
        75.1356049,
        566.6939,
        30.1508
      ],
      "min": [
        -73.7592,
        474.5308,
        -14.0075645
      ],
      "type": "VEC3",
      "name": "accessorPositions"
    },
    {
      "bufferView": 1,
      "byteOffset": 91584,
      "componentType": 5126,
      "count": 288,
      "type": "VEC3",
      "name": "accessorNormals"
    },
    {
      "bufferView": 2,
      "byteOffset": 29376,
      "componentType": 5126,
      "count": 288,
      "type": "VEC2",
      "name": "accessorUVs"
    },
    {
      "bufferView": 3,
      "byteOffset": 29376,
      "componentType": 5123,
      "count": 288,
      "type": "VEC4",
      "name": "accessorJoints"
    },
    {
      "bufferView": 4,
      "byteOffset": 58752,
      "componentType": 5126,
      "count": 288,
      "type": "VEC4",
      "name": "accessorWeights"
    },
    {
      "bufferView": 5,
      "componentType": 5126,
      "count": 9,
      "type": "MAT4",
      "name": "accessorInverseBindMatrices",
      "byteOffset": 0
    },
    {
      "bufferView": 6,
      "componentType": 5126,
      "count": 101,
      "max": [
        3.33333325
      ],
      "min": [
        0
      ],
      "type": "SCALAR",
      "name": "accessorAnimationInput",
      "byteOffset": 0
    },
    {
      "bufferView": 7,
      "componentType": 5126,
      "count": 101,
      "type": "VEC3",
      "name": "accessorAnimationPositions",
      "byteOffset": 0
    },
    {
      "bufferView": 8,
      "componentType": 5126,
      "count": 101,
      "type": "VEC4",
      "name": "accessorAnimationRotations",
      "byteOffset": 0
    },
    {
      "bufferView": 7,
      "byteOffset": 1212,
      "componentType": 5126,
      "count": 101,
      "type": "VEC3",
      "name": "accessorAnimationScales"
    },
    {
      "bufferView": 6,
      "byteOffset": 404,
      "componentType": 5126,
      "count": 101,
      "max": [
        3.33333325
      ],
      "min": [
        0
      ],
      "type": "SCALAR",
      "name": "accessorAnimationInput"
    },
    {
      "bufferView": 7,
      "byteOffset": 2424,
      "componentType": 5126,
      "count": 101,
      "type": "VEC3",
      "name": "accessorAnimationPositions"
    },
    {
      "bufferView": 8,
      "byteOffset": 1616,
      "componentType": 5126,
      "count": 101,
      "type": "VEC4",
      "name": "accessorAnimationRotations"
    },
    {
      "bufferView": 7,
      "byteOffset": 3636,
      "componentType": 5126,
      "count": 101,
      "type": "VEC3",
      "name": "accessorAnimationScales"
    },
    {
      "bufferView": 6,
      "byteOffset": 808,
      "componentType": 5126,
      "count": 101,
      "max": [
        3.33333325
      ],
      "min": [
        0
      ],
      "type": "SCALAR",
      "name": "accessorAnimationInput"
    },
    {
      "bufferView": 7,
      "byteOffset": 4848,
      "componentType": 5126,
      "count": 101,
      "type": "VEC3",
      "name": "accessorAnimationPositions"
    },
    {
      "bufferView": 8,
      "byteOffset": 3232,
      "componentType": 5126,
      "count": 101,
      "type": "VEC4",
      "name": "accessorAnimationRotations"
    },
    {
      "bufferView": 7,
      "byteOffset": 6060,
      "componentType": 5126,
      "count": 101,
      "type": "VEC3",
      "name": "accessorAnimationScales"
    },
    {
      "bufferView": 6,
      "byteOffset": 1212,
      "componentType": 5126,
      "count": 101,
      "max": [
        3.33333325
      ],
      "min": [
        0
      ],
      "type": "SCALAR",
      "name": "accessorAnimationInput"
    },
    {
      "bufferView": 7,
      "byteOffset": 7272,
      "componentType": 5126,
      "count": 101,
      "type": "VEC3",
      "name": "accessorAnimationPositions"
    },
    {
      "bufferView": 8,
      "byteOffset": 4848,
      "componentType": 5126,
      "count": 101,
      "type": "VEC4",
      "name": "accessorAnimationRotations"
    },
    {
      "bufferView": 7,
      "byteOffset": 8484,
      "componentType": 5126,
      "count": 101,
      "type": "VEC3",
      "name": "accessorAnimationScales"
    },
    {
      "bufferView": 6,
      "byteOffset": 1616,
      "componentType": 5126,
      "count": 101,
      "max": [
        3.33333325
      ],
      "min": [
        0
      ],
      "type": "SCALAR",
      "name": "accessorAnimationInput"
    },
    {
      "bufferView": 7,
      "byteOffset": 9696,
      "componentType": 5126,
      "count": 101,
      "type": "VEC3",
      "name": "accessorAnimationPositions"
    },
    {
      "bufferView": 8,
      "byteOffset": 6464,
      "componentType": 5126,
      "count": 101,
      "type": "VEC4",
      "name": "accessorAnimationRotations"
    },
    {
      "bufferView": 7,
      "byteOffset": 10908,
      "componentType": 5126,
      "count": 101,
      "type": "VEC3",
      "name": "accessorAnimationScales"
    }
  ],
  "bufferViews": [
    {
      "buffer": 0,
      "byteOffset": 0,
      "byteLength": 7920,
      "name": "bufferViewScalar",
      "target": 34963
    },
    {
      "buffer": 0,
      "byteOffset": 7920,
      "byteLength": 95040,
      "byteStride": 12,
      "name": "bufferViewFloatVec3",
      "target": 34962
    },
    {
      "buffer": 0,
      "byteOffset": 102960,
      "byteLength": 31680,
      "byteStride": 8,
      "name": "bufferViewFloatVec2",
      "target": 34962
    },
    {
      "buffer": 0,
      "byteOffset": 134640,
      "byteLength": 31680,
      "byteStride": 8,
      "name": "bufferViewUnsignedShortVec4",
      "target": 34962
    },
    {
      "buffer": 0,
      "byteOffset": 166320,
      "byteLength": 63360,
      "byteStride": 16,
      "name": "bufferViewFloatVec4",
      "target": 34962
    },
    {
      "buffer": 0,
      "byteOffset": 229680,
      "byteLength": 576,
      "name": "bufferViewFloatMat4"
    },
    {
      "buffer": 0,
      "byteOffset": 230256,
      "byteLength": 2020,
      "name": "bufferViewAnimationFloatScalar"
    },
    {
      "buffer": 0,
      "byteOffset": 232276,
      "byteLength": 12120,
      "name": "bufferViewAnimationFloatVec3"
    },
    {
      "buffer": 0,
      "byteOffset": 244396,
      "byteLength": 8080,
      "name": "bufferViewAnimationFloatVec4"
    },
    {
      "buffer": 0,
      "byteOffset": 252476,
      "byteLength": 158068
    },
    {
      "buffer": 0,
      "byteOffset": 410544,
      "byteLength": 158068
    }
  ],
  "buffers": [
    {
      "name": "test",
      "byteLength": 568612,
      "uri": "data:application/octet-stream;base64,"
    }
  ],
  "materials": [
    {
      "pbrMetallicRoughness": {
        "baseColorTexture": {
          "index": 0,
          "texCoord": 0
        },
        "metallicFactor": 0,
        "roughnessFactor": 0.450053632,
        "baseColorFactor": [
          1,
          1,
          1,
          1
        ]
      },
      "name": "123",
      "emissiveFactor": [
        0,
        0,
        0
      ],
      "alphaMode": "OPAQUE",
      "doubleSided": false
    },
    {
      "pbrMetallicRoughness": {
        "baseColorTexture": {
          "index": 1,
          "texCoord": 0
        },
        "metallicFactor": 0,
        "roughnessFactor": 0.450053632,
        "baseColorFactor": [
          1,
          1,
          1,
          1
        ]
      },
      "name": "456",
      "emissiveFactor": [
        0,
        0,
        0
      ],
      "alphaMode": "BLEND",
      "doubleSided": false
    }
  ],
  "textures": [
    {
      "sampler": 0,
      "source": 0,
      "name": "test1.png"
    },
    {
      "sampler": 0,
      "source": 1,
      "name": "test2.png"
    }
  ],
  "images": [
    {
      "mimeType": "image/png",
      "bufferView": 9
    },
    {
      "mimeType": "image/png",
      "bufferView": 10
    }
  ],
  "samplers": [
    {
      "magFilter": 9729,
      "minFilter": 9987,
      "wrapS": 10497,
      "wrapT": 10497
    }
  ],
  "animations": [
    {
      "channels": [
        {
          "sampler": 0,
          "target": {
            "node": 2,
            "path": "translation"
          }
        },
        {
          "sampler": 1,
          "target": {
            "node": 2,
            "path": "rotation"
          }
        },
        {
          "sampler": 2,
          "target": {
            "node": 2,
            "path": "scale"
          }
        },
        {
          "sampler": 3,
          "target": {
            "node": 3,
            "path": "translation"
          }
        },
        {
          "sampler": 4,
          "target": {
            "node": 3,
            "path": "rotation"
          }
        },
        {
          "sampler": 5,
          "target": {
            "node": 3,
            "path": "scale"
          }
        },
        {
          "sampler": 6,
          "target": {
            "node": 5,
            "path": "translation"
          }
        },
        {
          "sampler": 7,
          "target": {
            "node": 5,
            "path": "rotation"
          }
        },
        {
          "sampler": 8,
          "target": {
            "node": 5,
            "path": "scale"
          }
        },
        {
          "sampler": 9,
          "target": {
            "node": 7,
            "path": "translation"
          }
        },
        {
          "sampler": 10,
          "target": {
            "node": 7,
            "path": "rotation"
          }
        },
        {
          "sampler": 11,
          "target": {
            "node": 7,
            "path": "scale"
          }
        },
        {
          "sampler": 12,
          "target": {
            "node": 9,
            "path": "translation"
          }
        },
        {
          "sampler": 13,
          "target": {
            "node": 9,
            "path": "rotation"
          }
        },
        {
          "sampler": 14,
          "target": {
            "node": 9,
            "path": "scale"
          }
        }
      ],
      "samplers": [
        {
          "input": 13,
          "output": 14,
          "interpolation": "LINEAR"
        },
        {
          "input": 13,
          "output": 15,
          "interpolation": "LINEAR"
        },
        {
          "input": 13,
          "output": 16,
          "interpolation": "LINEAR"
        },
        {
          "input": 17,
          "output": 18,
          "interpolation": "LINEAR"
        },
        {
          "input": 17,
          "output": 19,
          "interpolation": "LINEAR"
        },
        {
          "input": 17,
          "output": 20,
          "interpolation": "LINEAR"
        },
        {
          "input": 21,
          "output": 22,
          "interpolation": "LINEAR"
        },
        {
          "input": 21,
          "output": 23,
          "interpolation": "LINEAR"
        },
        {
          "input": 21,
          "output": 24,
          "interpolation": "LINEAR"
        },
        {
          "input": 25,
          "output": 26,
          "interpolation": "LINEAR"
        },
        {
          "input": 25,
          "output": 27,
          "interpolation": "LINEAR"
        },
        {
          "input": 25,
          "output": 28,
          "interpolation": "LINEAR"
        },
        {
          "input": 29,
          "output": 30,
          "interpolation": "LINEAR"
        },
        {
          "input": 29,
          "output": 31,
          "interpolation": "LINEAR"
        },
        {
          "input": 29,
          "output": 32,
          "interpolation": "LINEAR"
        }
      ],
      "name": "All Animations"
    }
  ],
  "skins": [
    {
      "inverseBindMatrices": 12,
      "skeleton": 2,
      "joints": [
        2,
        3,
        4,
        5,
        6,
        7,
        8,
        9,
        10
      ],
      "name": "skeleton #0"
    }
  ]
}
